<svg id="Livello_1" data-name="Livello 1" xmlns="http://www.w3.org/2000/svg" viewBox="0 0 96.89 123"><defs><style>.cls-1{fill:none;stroke:#bcbcbc;stroke-miterlimit:10;stroke-width:4px;}</style></defs><title>Glass</title><path class="cls-1" d="M205.62,152.31,204.41,162A11.67,11.67,0,0,1,193,172.5H150A11.67,11.67,0,0,1,138.59,162l-1.21-9.73A12,12,0,0,0,149,161.5H194A12,12,0,0,0,205.62,152.31Z" transform="translate(-123.05 -51.5)"/><path class="cls-1" d="M217.91,58l-12,93c-.06.43-.14.86-.24,1.27A12,12,0,0,1,194,161.5H149a12,12,0,0,1-11.66-9.19c-.1-.41-.18-.84-.24-1.27l-12-93a4,4,0,0,1,4-4.51H214A4,4,0,0,1,217.91,58Z" transform="translate(-123.05 -51.5)"/></svg>