<svg id="Livello_1" data-name="Livello 1" xmlns="http://www.w3.org/2000/svg" viewBox="0 0 196 135.5"><defs><style>.cls-1,.cls-2,.cls-4{fill:none;}.cls-1,.cls-2{stroke:#bcbcbc;stroke-width:4px;}.cls-1,.cls-4{stroke-miterlimit:10;}.cls-2,.cls-4{stroke-linecap:round;}.cls-2{stroke-linejoin:round;}.cls-3{fill:#fff;}.cls-4{stroke:#000;stroke-width:2px;}</style></defs><title>Glass Mascotte</title><path class="cls-1" d="M205.62,152.31,204.41,162A11.67,11.67,0,0,1,193,172.5H150A11.67,11.67,0,0,1,138.59,162l-1.21-9.73A12,12,0,0,0,149,161.5H194A12,12,0,0,0,205.62,152.31Z" transform="translate(-74 -39)"/><path class="cls-1" d="M214,53.5h-84.9a4,4,0,0,0-4,4.51l12,93c.06.43.14.86.24,1.27A12,12,0,0,0,149,161.5H194a12,12,0,0,0,11.66-9.19c.1-.41.18-.84.24-1.27l12-93A4,4,0,0,0,214,53.5Z" transform="translate(-74 -39)"/><path class="cls-2" d="M91,41,90,51s14,40,38,34" transform="translate(-74 -39)"/><polyline class="cls-2" points="7 18 16 12 2 7"/><path class="cls-2" d="M252,44l4,13s-18,24-41,29" transform="translate(-74 -39)"/><polyline class="cls-2" points="194 19 182 18 191 12"/><circle cx="80" cy="57" r="6"/><circle class="cls-3" cx="76.5" cy="54.5" r="1.5"/><circle cx="115" cy="57" r="6"/><circle class="cls-3" cx="111.5" cy="54.5" r="1.5"/><path class="cls-4" d="M177,116a6,6,0,0,1-12,0" transform="translate(-74 -39)"/></svg>