<svg id="Livello_1" data-name="Livello 1" xmlns="http://www.w3.org/2000/svg" viewBox="0 0 119.97 123"><defs><style>.cls-1,.cls-2,.cls-4{fill:none;}.cls-1,.cls-2{stroke:#bcbcbc;stroke-width:4px;}.cls-1,.cls-4,.cls-5,.cls-6{stroke-miterlimit:10;}.cls-2,.cls-4{stroke-linecap:round;}.cls-2{stroke-linejoin:round;}.cls-3{fill:#fff;}.cls-4,.cls-5,.cls-6{stroke:#000;}.cls-4{stroke-width:2px;}.cls-5,.cls-6{fill:#bcbcbc;}.cls-5{stroke-width:0.15px;}.cls-6{stroke-width:0.25px;}</style></defs><title>Glass Mascotte 2</title><path class="cls-1" d="M205.62,152.31,204.41,162A11.67,11.67,0,0,1,193,172.5H150A11.67,11.67,0,0,1,138.59,162l-1.21-9.73A12,12,0,0,0,149,161.5H194A12,12,0,0,0,205.62,152.31Z" transform="translate(-123.05 -51.5)"/><path class="cls-1" d="M214,53.5h-84.9a4,4,0,0,0-4,4.51l12,93c.06.43.14.86.24,1.27A12,12,0,0,0,149,161.5H194a12,12,0,0,0,11.66-9.19c.1-.41.18-.84.24-1.27l12-93A4,4,0,0,0,214,53.5Z" transform="translate(-123.05 -51.5)"/><path class="cls-2" d="M128,85" transform="translate(-123.05 -51.5)"/><circle cx="30.95" cy="44.5" r="6"/><circle class="cls-3" cx="33.45" cy="48" r="1.5"/><circle cx="65.95" cy="44.5" r="6"/><circle class="cls-3" cx="68.45" cy="48" r="1.5"/><path class="cls-4" d="M177,116a6,6,0,0,1-12,0" transform="translate(-123.05 -51.5)"/><path class="cls-2" d="M130.46,99.5C117,115,166,148,166,148" transform="translate(-123.05 -51.5)"/><polyline class="cls-2" points="44.95 107.5 42.95 96.5 50.95 102.5"/><line class="cls-2" x1="42.95" y1="96.5" x2="51.95" y2="94.5"/><circle class="cls-5" cx="42.95" cy="96.5" r="6"/><polyline class="cls-6" points="42.95 92.5 42.95 96.5 46.95 96.5"/><path class="cls-1" d="M212.54,99.5C232,101,240,108,241,116c.82,6.55-18.48,14.44-25.5,17.09-1.55.58-2.5.91-2.5.91l8,8" transform="translate(-123.05 -51.5)"/><line class="cls-1" x1="87.34" y1="81.5" x2="91.33" y2="95.5"/></svg>