<?xml version="1.0" encoding="utf-8"?>
<!-- Generator: Adobe Illustrator 23.0.3, SVG Export Plug-In . SVG Version: 6.00 Build 0)  -->
<svg version="1.1" id="Livello_1" xmlns="http://www.w3.org/2000/svg" xmlns:xlink="http://www.w3.org/1999/xlink" x="0px" y="0px"
	 viewBox="0 0 414 236" style="enable-background:new 0 0 414 236;" xml:space="preserve">
<style type="text/css">
	.st0{fill:#F2F2F2;}
	.st1{fill:#6AAED9;}
</style>
<g>
	<path class="st0" d="M165.5,101c0,0-26-31-26-46c0,15-25.8,46-25.8,46c-10.5,14.2-7.5,34.3,6.8,44.8c5.5,4.1,12.2,6.2,19,6.2
		c19.1,0,31.5-17.2,32-32C171.8,111.1,167.8,104.2,165.5,101z M168.5,119.9c-0.4,7.3-3.3,14.2-8.2,19.6c-5.2,6-12.8,9.4-20.8,9.5
		c-16,0-29-13-29-29c0-0.7,0-1.4,0.1-2v0c0-0.2,0-0.3,0-0.5c0-0.5,0.1-1,0.2-1.6c0.7-4.7,2.5-9.2,5.3-13.1c0.7-0.8,6.8-8.3,13-17.6
		c4-5.8,7.5-12,10.4-18.4h0c2.9,6.5,6.4,12.6,10.5,18.4c6.2,9.2,12.3,16.5,13.1,17.5c3.3,4.6,5.2,10.1,5.4,15.7c0,0.3,0,0.6,0,0.9
		V119.9z"/>
</g>
<g>
	<path class="st1" d="M168.5,119.4v0.5c-0.4,7.3-3.3,14.2-8.2,19.6c-5.2,6-12.8,9.4-20.8,9.5c-16,0-29-13-29-29c0-0.7,0-1.4,0.1-2v0
		c0-0.2,0-0.3,0-0.5c5.5-1.4,8.7,1.3,12.2,4.1c3,2.4,6.2,5,11.2,5.2c6.5,0.3,9.7-2.8,12.6-5.6c1.8-1.8,3.4-3.4,5.6-3.6
		c2.7-0.3,4.1,1.8,5.3,3.7c1,1.6,2,3,3.6,3.1c2.2,0.1,4.6-2,7-6l0.4,0.3C168.5,118.8,168.5,119.1,168.5,119.4z"/>
</g>
</svg>
